<svg xmlns="http://www.w3.org/2000/svg" viewBox="0 0 1280 680" width="1280" height="680" role="img" aria-labelledby="title desc">
  <title id="title">How EvidentLoop builds an auditable report</title>
  <desc id="desc">A developer asks the EvidentLoop Skill to audit a local Git diff. The host model reviews the fixed diff once. EvidentLoop stages and validates the result, then publishes audit.json and audit.html together. The developer can export decisions, paste them back into the Skill, and revise the report without another model review. The revised files pass the same artifact-pair gate before publication.</desc>
  <style>
    text { font-family: 'Helvetica Neue', Helvetica, Arial, 'PingFang SC', 'Microsoft YaHei', sans-serif; }
    .title { fill: #111827; font-size: 25px; font-weight: 700; }
    .subtitle { fill: #6b7280; font-size: 13px; }
    .lane-title { fill: #374151; font-size: 11px; font-weight: 700; letter-spacing: 0.09em; }
    .node-title { fill: #111827; font-size: 15px; font-weight: 700; }
    .node-sub { fill: #6b7280; font-size: 11.5px; }
    .small { fill: #4b5563; font-size: 10.5px; }
    .arrow-label { font-size: 10.5px; font-weight: 700; }
    .mono { font-family: ui-monospace, SFMono-Regular, Menlo, Consolas, monospace; }
  </style>
  <defs>
    <marker id="blue-arrow" markerWidth="10" markerHeight="7" refX="9" refY="3.5" orient="auto">
      <polygon points="0 0, 10 3.5, 0 7" fill="#2563eb"/>
    </marker>
    <marker id="purple-arrow" markerWidth="10" markerHeight="7" refX="9" refY="3.5" orient="auto">
      <polygon points="0 0, 10 3.5, 0 7" fill="#7c3aed"/>
    </marker>
    <marker id="green-arrow" markerWidth="10" markerHeight="7" refX="9" refY="3.5" orient="auto">
      <polygon points="0 0, 10 3.5, 0 7" fill="#16a34a"/>
    </marker>
  </defs>

  <rect width="1280" height="680" fill="#ffffff"/>
  <text x="40" y="40" class="title">How EvidentLoop builds an auditable report</text>
  <text x="40" y="64" class="subtitle">The host reviews once; human decisions update and republish the report without another model review.</text>

  <rect x="40" y="90" width="1200" height="142" rx="13" fill="#f8fafc" stroke="#d1d5db" stroke-width="1.4"/>
  <text x="60" y="116" class="lane-title">USER AND AI HOST</text>

  <g>
    <rect x="70" y="136" width="220" height="74" rx="10" fill="#eff6ff" stroke="#93c5fd" stroke-width="1.6"/>
    <circle cx="105" cy="173" r="18" fill="#2563eb"/>
    <circle cx="105" cy="168" r="6" fill="none" stroke="#ffffff" stroke-width="1.8"/>
    <path d="M 96 182 C 98 175, 112 175, 114 182" fill="none" stroke="#ffffff" stroke-width="1.8" stroke-linecap="round"/>
    <text x="134" y="166" class="node-title">Developer</text>
    <text x="134" y="188" class="node-sub">“Audit my local diff”</text>
  </g>

  <path d="M 290 173 L 390 173" fill="none" stroke="#2563eb" stroke-width="2.2" stroke-dasharray="7 5" marker-end="url(#blue-arrow)"/>
  <text x="340" y="158" text-anchor="middle" class="arrow-label" fill="#2563eb">request</text>

  <g>
    <rect x="390" y="136" width="250" height="74" rx="10" fill="#fff7ed" stroke="#fdba74" stroke-width="1.6"/>
    <circle cx="425" cy="173" r="18" fill="#ea580c"/>
    <text x="425" y="177" text-anchor="middle" fill="#ffffff" font-size="10" font-weight="700">SK</text>
    <text x="454" y="166" class="node-title">EvidentLoop Skill</text>
    <text x="454" y="188" class="node-sub">select · authorize · orchestrate</text>
  </g>

  <path d="M 640 173 L 790 173" fill="none" stroke="#7c3aed" stroke-width="2.2" marker-end="url(#purple-arrow)"/>
  <text x="715" y="158" text-anchor="middle" class="arrow-label" fill="#7c3aed">fixed review task</text>

  <g>
    <rect x="790" y="136" width="390" height="74" rx="10" fill="#faf5ff" stroke="#c4b5fd" stroke-width="1.6"/>
    <circle cx="825" cy="173" r="18" fill="#7c3aed"/>
    <path d="M 825 160 L 829 169 L 838 173 L 829 177 L 825 186 L 821 177 L 812 173 L 821 169 Z" fill="#ffffff"/>
    <text x="854" y="166" class="node-title">Host model</text>
    <text x="854" y="188" class="node-sub">semantic review · no command execution</text>
  </g>

  <rect x="40" y="252" width="1200" height="190" rx="13" fill="#f8fafc" stroke="#d1d5db" stroke-width="1.4"/>
  <text x="60" y="278" class="lane-title">PRIVATE STAGING AND VALIDATION</text>

  <path d="M 515 210 L 515 236 L 180 236 L 180 304" fill="none" stroke="#2563eb" stroke-width="2" stroke-dasharray="7 5" marker-end="url(#blue-arrow)"/>
  <text x="338" y="231" text-anchor="middle" class="arrow-label" fill="#2563eb">orchestrate</text>
  <path d="M 985 210 L 985 238 L 478 238 L 478 304" fill="none" stroke="#7c3aed" stroke-width="2.1" marker-end="url(#purple-arrow)"/>
  <text x="740" y="233" text-anchor="middle" class="arrow-label" fill="#7c3aed">raw semantic analysis</text>

  <g>
    <rect x="70" y="304" width="220" height="110" rx="10" fill="#eff6ff" stroke="#93c5fd" stroke-width="1.6"/>
    <text x="92" y="333" class="node-title">prepare</text>
    <text x="92" y="356" class="node-sub">freeze Git diff + bounded hunks</text>
    <text x="92" y="378" class="node-sub">build the review prompt</text>
    <text x="92" y="400" class="small">trusted input</text>
  </g>

  <path d="M 290 359 L 350 359" fill="none" stroke="#16a34a" stroke-width="2.2" marker-end="url(#green-arrow)"/>

  <g>
    <rect x="350" y="304" width="255" height="110" rx="10" fill="#f0fdfa" stroke="#5eead4" stroke-width="1.6" stroke-dasharray="6 4"/>
    <text x="372" y="333" class="node-title">Private handoff</text>
    <text x="372" y="356" class="node-sub mono">prompt.md + raw-analysis.md</text>
    <text x="372" y="378" class="node-sub">temporary · private by default</text>
    <text x="372" y="400" class="small">cleaned after completion</text>
  </g>

  <path d="M 605 359 L 665 359" fill="none" stroke="#16a34a" stroke-width="2.2" marker-end="url(#green-arrow)"/>

  <g>
    <rect x="665" y="304" width="220" height="110" rx="10" fill="#fff7ed" stroke="#fdba74" stroke-width="1.6"/>
    <text x="687" y="333" class="node-title">finalize</text>
    <text x="687" y="356" class="node-sub">validate schema + changed-line anchors</text>
    <text x="687" y="378" class="node-sub">normalize status and findings</text>
    <text x="687" y="400" class="small">candidate artifacts</text>
  </g>

  <path d="M 885 359 L 945 359" fill="none" stroke="#16a34a" stroke-width="2.2" marker-end="url(#green-arrow)"/>

  <g>
    <rect x="945" y="304" width="265" height="110" rx="10" fill="#f0fdf4" stroke="#86efac" stroke-width="1.6"/>
    <text x="967" y="333" class="node-title">Artifact-pair gate</text>
    <text x="967" y="356" class="node-sub">identity · trace · report integrity</text>
    <text x="967" y="378" class="node-sub">JSON and HTML pass together</text>
    <text x="967" y="400" class="small">nothing published early</text>
  </g>

  <rect x="40" y="462" width="1200" height="176" rx="13" fill="#f8fafc" stroke="#d1d5db" stroke-width="1.4"/>
  <text x="60" y="488" class="lane-title">USER-VISIBLE OUTPUT</text>

  <path d="M 1078 414 L 1078 476 L 418 476 L 418 500" fill="none" stroke="#16a34a" stroke-width="2.2" marker-end="url(#green-arrow)"/>
  <path d="M 1078 476 L 675 476 L 675 500" fill="none" stroke="#16a34a" stroke-width="2.2" marker-end="url(#green-arrow)"/>
  <text x="842" y="470" text-anchor="middle" class="arrow-label" fill="#16a34a">same-directory commit</text>

  <g>
    <rect x="300" y="500" width="235" height="38" rx="8" fill="#f0fdf4" stroke="#86efac" stroke-width="1.4"/>
    <text x="322" y="524" class="node-title mono">audit.json</text>
    <text x="430" y="524" class="small">validated record</text>
  </g>
  <g>
    <rect x="550" y="500" width="250" height="38" rx="8" fill="#f0fdf4" stroke="#86efac" stroke-width="1.4"/>
    <text x="572" y="524" class="node-title mono">audit.html</text>
    <text x="686" y="524" class="small">self-contained report</text>
  </g>
  <path d="M 800 519 L 875 519" fill="none" stroke="#7c3aed" stroke-width="2.1" marker-end="url(#purple-arrow)"/>
  <text x="838" y="504" text-anchor="middle" class="arrow-label" fill="#7c3aed">export decisions</text>
  <g>
    <rect x="875" y="500" width="285" height="38" rx="8" fill="#faf5ff" stroke="#c4b5fd" stroke-width="1.4"/>
    <text x="897" y="524" class="node-title">Feedback JSONL</text>
  </g>

  <path d="M 1018 538 L 1018 580" fill="none" stroke="#7c3aed" stroke-width="2.1" marker-end="url(#purple-arrow)"/>
  <text x="1030" y="563" class="arrow-label" fill="#7c3aed">paste decisions</text>
  <g>
    <rect x="875" y="580" width="285" height="46" rx="8" fill="#fff7ed" stroke="#fdba74" stroke-width="1.4"/>
    <text x="897" y="601" class="node-title">revise</text>
    <text x="959" y="601" class="node-sub">verify report + feedback</text>
    <text x="897" y="617" class="small">apply decisions · keep the original review</text>
  </g>
  <path d="M 1160 603 L 1190 603 L 1190 414" fill="none" stroke="#16a34a" stroke-width="2.2" marker-end="url(#green-arrow)"/>
  <text x="1182" y="492" text-anchor="middle" class="arrow-label" fill="#16a34a" transform="rotate(-90 1182 492)">verify + republish</text>

  <line x1="60" y1="658" x2="90" y2="658" stroke="#2563eb" stroke-width="2" stroke-dasharray="7 5" marker-end="url(#blue-arrow)"/>
  <text x="102" y="662" class="small">orchestration</text>
  <line x1="220" y1="658" x2="250" y2="658" stroke="#7c3aed" stroke-width="2" marker-end="url(#purple-arrow)"/>
  <text x="262" y="662" class="small">semantic review / human action</text>
  <line x1="470" y1="658" x2="500" y2="658" stroke="#16a34a" stroke-width="2" marker-end="url(#green-arrow)"/>
  <text x="512" y="662" class="small">trusted data / artifact</text>
</svg>
